<svg id="Capa_1" enable-background="new 0 0 512 512" height="512" viewBox="0 0 512 512" width="512" xmlns="http://www.w3.org/2000/svg"><g><g><path d="m374.5 456v41c0 8.28-6.72 15-15 15s-15-6.72-15-15v-41c0-8.28 6.72-15 15-15s15 6.72 15 15z" fill="#f5d944"/></g><path d="m374.5 456v41c0 8.28-6.72 15-15 15v-71c8.28 0 15 6.72 15 15z" fill="#edbe2c"/><path d="m415.5 428.6c0 15.09-12.23 27.4-27.4 27.4h-57.2c-15.13 0-27.4-12.27-27.4-27.4 0-7.99 3.49-15.59 9.57-20.8l46.43-39.8 46.43 39.8c6.07 5.2 9.57 12.8 9.57 20.8z" fill="#ff4a4a"/><path d="m415.5 428.6c0 15.09-12.23 27.4-27.4 27.4h-28.6v-88l46.43 39.8c6.07 5.2 9.57 12.8 9.57 20.8z" fill="#c73c50"/><path d="m511.5 200c0-10.3-1.04-20.36-3.03-30.08-14.07-4.3-9.03-28.88-9.03-28.88-7.01-16.34-16.84-31.22-28.87-44.02-13.22.07-24.96-21.38-24.96-21.38-24.49-16.8-54.17-26.64-86.11-26.64-79.69 0-145.26 61.25-151.51 138.85-.33 4.01-.49 8.06-.49 12.15 0 6.66.45 13.57 1.32 20.63 1.95 15.88 6.03 32.56 11.9 49.05 3.32 9.34 7.23 18.63 11.65 27.67 5.3 10.87 11.35 21.38 18.05 31.24 1.78 2.63 3.59 5.18 5.42 7.67 0 0 0 0 .01.01.63.35 20.71 11.87 20.34 23.76 25.44 25.37 54.17 38.97 83.31 38.97 39.51 0 78.24-25 109.08-70.41 14.23-20.97 25.57-44.91 33.01-68.83-10.17-13.29 8.24-36.42 8.24-36.42 1.1-8.01 1.67-15.83 1.67-23.34z" fill="#ff6c6c"/><path d="m509.83 223.34s-18.41 23.13-8.24 36.42c-7.44 23.92-18.78 47.86-33.01 68.83-30.84 45.41-69.57 70.41-109.08 70.41v-350c31.94 0 61.62 9.84 86.11 26.64 0 0 11.74 21.45 24.96 21.38 12.03 12.8 21.86 27.68 28.87 44.02 0 0-5.04 24.58 9.03 28.88 1.99 9.72 3.03 19.78 3.03 30.08 0 7.51-.57 15.33-1.67 23.34z" fill="#ff4a4a"/><g><path d="m509.83 223.34c-1.63 11.86-4.42 24.14-8.24 36.42-27.25 12.01-73.14 32.34-142.09 63.07-24.73 11.03-52.43 23.4-83.31 37.2-7.05-7.03-13.85-14.97-20.35-23.77 39.96-17.87 74.36-33.22 103.66-46.28 43.68-19.45 76.05-33.82 98.67-43.83 23.96-10.61 39.62-17.52 48.54-21.44 1.11-.49 2.15-.94 3.12-1.37z" fill="#f3f6fc"/></g><g><path d="m509.83 223.34c-1.63 11.86-4.42 24.14-8.24 36.42-27.25 12.01-73.14 32.34-142.09 63.07v-32.85c43.68-19.45 76.05-33.82 98.67-43.83 23.96-10.61 39.62-17.52 48.54-21.44 1.11-.49 2.15-.94 3.12-1.37z" fill="#dce0ea"/></g><g><path d="m508.47 169.92-148.97 68.75-127.13 58.68c-4.42-9.04-8.33-18.33-11.65-27.67l138.78-64.05 139.94-64.59c3.93 9.2 6.98 18.86 9.03 28.88z" fill="#f3f6fc"/></g><g><path d="m508.47 169.92-148.97 68.75v-33.04l139.94-64.59c3.93 9.2 6.98 18.86 9.03 28.88z" fill="#dce0ea"/></g><g><path d="m470.57 97.02-111.07 52.45-150.68 71.16c-.87-7.06-1.32-13.97-1.32-20.63 0-4.09.16-8.14.49-12.15l151.51-71.55 86.11-40.66c9.08 6.22 17.45 13.39 24.96 21.38z" fill="#f3f6fc"/></g><g><path d="m470.57 97.02-111.07 52.45v-33.17l86.11-40.66c9.08 6.22 17.45 13.39 24.96 21.38z" fill="#dce0ea"/></g><g><path d="m166.5 408v89c0 8.28-6.72 15-15 15s-15-6.72-15-15v-89c0-8.28 6.72-15 15-15s15 6.72 15 15z" fill="#f5d944"/></g><g><path d="m166.5 408v89c0 8.28-6.72 15-15 15v-119c8.28 0 15 6.72 15 15z" fill="#edbe2c"/></g><g><path d="m207.5 380.6c0 15.09-12.23 27.4-27.4 27.4h-57.2c-15.13 0-27.4-12.27-27.4-27.4 0-7.99 3.49-15.59 9.57-20.8l46.43-39.8 46.43 39.8c6.07 5.2 9.57 12.8 9.57 20.8z" fill="#4981fb"/></g><g><path d="m207.5 380.6c0 15.09-12.23 27.4-27.4 27.4h-28.6v-88l46.43 39.8c6.07 5.2 9.57 12.8 9.57 20.8z" fill="#2e51be"/></g><g><path d="m151.5 0c-83.26 0-151 68.19-151 152 0 40.39 16.24 89.64 42.38 128.54 30.55 45.44 69.12 70.46 108.62 70.46s78.07-25.02 108.62-70.46c26.14-38.9 42.38-88.15 42.38-128.54 0-83.81-67.74-152-151-152z" fill="#6aa8fc"/></g><g><path d="m302.5 152c0 40.39-16.24 89.64-42.38 128.54-30.55 45.44-69.12 70.46-108.62 70.46v-351c83.26 0 151 68.19 151 152z" fill="#4981fb"/></g><g><path d="m237.52 130.67c-2.21-5.82-7.79-9.67-14.02-9.67h-43.07l-14.95-38.44c-2.24-5.76-7.79-9.56-13.98-9.56s-11.74 3.8-13.98 9.56l-14.95 38.44h-43.07c-6.23 0-11.81 3.85-14.02 9.67s-.6 12.4 4.05 16.54l31.84 28.3-19.85 51.05c-2.3 5.92-.63 12.66 4.19 16.8 4.81 4.15 11.72 4.82 17.23 1.66l48.56-27.74 48.56 27.74c2.32 1.33 4.88 1.98 7.44 1.98 3.51 0 7-1.23 9.79-3.64 4.82-4.14 6.49-10.88 4.19-16.8l-19.85-51.05 31.84-28.3c4.65-4.14 6.26-10.72 4.05-16.54z" fill="#f3f6fc"/></g><g><path d="m233.47 147.21-31.84 28.3 19.85 51.05c2.3 5.92.63 12.66-4.19 16.8-2.79 2.41-6.28 3.64-9.79 3.64-2.56 0-5.12-.65-7.44-1.98l-48.56-27.74v-144.28c6.19 0 11.74 3.8 13.98 9.56l14.95 38.44h43.07c6.23 0 11.81 3.85 14.02 9.67s.6 12.4-4.05 16.54z" fill="#dce0ea"/></g></g></svg>